<?xml version="1.0" standalone="no"?>
<!DOCTYPE svg PUBLIC "-//W3C//DTD SVG 20010904//EN"
 "http://www.w3.org/TR/2001/REC-SVG-20010904/DTD/svg10.dtd">
<svg version="1.0" xmlns="http://www.w3.org/2000/svg"
 width="2000.000000pt" height="1414.000000pt" viewBox="0 0 2000.000000 1414.000000"
 preserveAspectRatio="xMidYMid meet">

<g transform="translate(0.000000,1414.000000) scale(0.100000,-0.100000)"
fill="#000000" stroke="none">
<path d="M9128 9390 c-72 -12 -194 -59 -278 -107 -36 -21 -106 -78 -156 -128
-81 -80 -98 -103 -142 -195 -93 -191 -86 -64 -90 -1525 -2 -903 0 -1315 8
-1375 50 -381 368 -677 750 -697 306 -16 592 142 744 410 l46 81 2 -219 3
-220 445 0 c514 0 537 3 705 85 113 55 194 121 273 219 45 56 113 179 137 246
5 16 12 6 29 -45 74 -216 221 -384 420 -480 126 -61 190 -75 346 -75 113 0
147 4 210 24 285 89 474 280 569 576 14 45 16 226 18 1718 l3 1667 -455 0
-455 0 0 -165 0 -165 55 0 55 0 0 -1335 0 -1335 -377 2 -378 3 3 1120 c3 994
2 1130 -13 1209 -48 269 -220 483 -477 594 -146 63 -174 66 -668 66 l-445 1
-5 -217 -5 -217 -40 76 c-94 179 -293 330 -510 390 -64 17 -253 25 -327 13z
m277 -115 c88 -19 232 -89 308 -150 148 -119 247 -334 247 -541 l0 -64 -290 0
-290 0 0 280 c0 301 -4 331 -51 364 -13 9 -42 16 -64 16 -22 0 -51 -7 -64 -16
-54 -38 -51 50 -51 -1784 0 -1862 -4 -1752 59 -1784 69 -36 141 -8 161 62 5
21 10 154 10 310 l0 272 292 0 291 0 -6 -104 c-17 -302 -209 -548 -497 -638
-63 -19 -95 -23 -205 -22 -113 1 -140 4 -203 27 -216 76 -377 238 -450 454
l-27 78 0 1345 0 1345 26 77 c55 160 144 280 270 363 164 110 352 148 534 110z
m1570 -58 c233 -68 413 -223 486 -417 52 -136 50 -102 47 -1440 -4 -1401 2
-1282 -84 -1458 -75 -154 -215 -279 -378 -338 -100 -36 -203 -44 -578 -44
l-348 0 0 1853 c0 1020 3 1857 8 1861 4 5 185 6 402 3 307 -4 406 -8 445 -20z
m2085 -1554 c0 -1766 4 -1649 -74 -1808 -152 -306 -505 -455 -832 -351 -165
53 -327 192 -403 348 -50 102 -67 165 -76 291 l-7 97 296 0 296 0 0 -290 c0
-195 4 -297 11 -314 22 -49 112 -72 157 -40 55 38 52 -73 52 1804 l0 1730 -55
0 -55 0 0 55 0 55 345 0 345 0 0 -1577z m-3420 747 l370 0 0 -1030 0 -1030
-370 0 -370 0 -3 -332 c-1 -183 -2 430 -2 1362 0 932 1 1545 2 1363 l3 -333
370 0z"/>
<path d="M10680 7380 l0 -1750 78 0 c95 0 152 23 179 72 17 31 18 107 18 1678
0 1571 -1 1647 -18 1678 -27 49 -84 72 -179 72 l-78 0 0 -1750z m158 1628 c17
-17 17 -3239 0 -3256 -7 -7 -20 -12 -30 -12 -17 0 -18 67 -18 1640 0 1573 1
1640 18 1640 10 0 23 -5 30 -12z"/>
<path d="M7260 9345 c0 -3 -112 -887 -250 -1966 -137 -1078 -250 -1962 -250
-1965 0 -2 74 -4 165 -4 163 0 165 0 170 23 5 24 165 1309 165 1327 0 7 47 10
147 8 l147 -3 83 -665 c46 -366 85 -671 88 -677 3 -10 94 -13 405 -13 220 0
400 3 400 7 0 19 -491 3910 -495 3921 -3 9 -90 12 -390 12 -212 0 -385 -2
-385 -5z m689 -182 c6 -43 110 -868 231 -1833 121 -965 222 -1767 225 -1782
l5 -28 -295 0 -294 0 -6 33 c-3 17 -39 307 -80 642 -41 336 -77 627 -81 648
l-6 37 -241 -2 -242 -3 -71 -575 c-39 -316 -77 -621 -84 -678 l-12 -103 -57 3
c-49 3 -56 5 -54 23 12 107 465 3656 468 3673 l5 22 289 0 289 0 11 -77z"/>
<path d="M7407 8750 c-3 -8 -53 -397 -112 -865 -58 -467 -108 -860 -111 -872
l-4 -23 225 0 225 0 -1 28 c-1 64 -216 1746 -222 1732z m52 -1227 c24 -197 46
-373 48 -390 l6 -33 -102 0 c-74 0 -101 3 -101 13 -1 35 94 767 99 767 4 0 26
-161 50 -357z"/>
<path d="M6775 6759 c-11 -4 -52 -17 -92 -29 -39 -12 -93 -33 -120 -47 -139
-71 -163 -83 -169 -82 -3 0 -18 -10 -32 -24 -15 -14 -38 -31 -52 -37 -14 -6
-52 -29 -85 -50 -33 -22 -70 -44 -82 -49 -11 -6 -24 -14 -27 -19 -3 -6 -25
-20 -48 -32 -24 -12 -47 -27 -53 -34 -5 -6 -32 -27 -60 -46 -27 -19 -66 -48
-86 -65 -20 -16 -60 -48 -89 -70 -84 -64 -256 -204 -344 -281 -45 -38 -97 -83
-115 -100 -19 -16 -78 -69 -130 -117 -53 -49 -100 -93 -106 -97 -13 -12 -113
-110 -137 -135 -10 -11 -70 -87 -133 -170 -75 -98 -115 -159 -115 -175 0 -14
-7 -45 -16 -69 -25 -72 -3 -169 53 -239 49 -60 118 -91 221 -100 80 -8 252 2
282 15 8 3 23 8 33 10 69 13 283 77 332 98 77 34 206 98 263 130 74 42 71 36
-37 -84 -40 -44 -80 -81 -87 -81 -8 0 -13 -5 -12 -12 2 -6 -10 -20 -27 -30
-16 -11 -79 -52 -140 -91 -60 -40 -115 -74 -121 -77 -6 -3 -31 -20 -55 -38
-24 -18 -74 -54 -110 -80 -37 -26 -112 -89 -168 -141 -56 -52 -115 -104 -130
-115 -92 -68 -319 -302 -366 -376 -13 -21 -30 -42 -37 -47 -29 -18 -88 -171
-88 -228 0 -73 39 -125 95 -125 18 0 45 21 102 82 99 104 115 120 193 193 36
33 112 111 170 174 58 62 132 142 165 176 66 69 111 119 165 183 59 71 120
132 130 132 6 0 10 3 10 8 0 8 59 74 141 157 27 28 49 54 49 59 0 22 80 76
208 141 75 39 143 75 149 82 7 6 27 15 45 18 18 4 41 15 50 25 10 10 43 24 75
31 32 7 63 16 70 21 6 5 20 8 30 7 10 -1 25 0 33 4 28 10 145 36 190 42 l45 5
-33 -26 c-67 -53 -98 -129 -69 -167 17 -24 99 -38 122 -20 11 7 26 13 35 13 9
0 30 6 46 14 16 8 54 26 84 40 30 15 71 37 90 49 20 12 51 31 69 42 18 11 46
31 62 43 33 27 34 26 14 -20 -34 -84 -15 -160 46 -173 39 -9 133 2 178 21 18
8 44 14 57 14 13 0 24 5 24 10 0 6 4 10 9 10 6 0 11 -17 13 -37 2 -31 7 -39
26 -41 17 -3 47 20 125 94 56 53 113 102 127 108 14 6 36 22 49 36 22 23 22
23 -2 -11 -73 -103 -97 -178 -68 -213 17 -20 53 -20 90 -1 16 8 31 11 35 8 3
-4 6 -1 6 4 0 6 30 33 68 59 37 26 108 84 157 128 50 45 101 90 114 101 l23
20 -27 -60 c-17 -38 -28 -85 -32 -130 -5 -62 -3 -73 17 -98 32 -40 60 -48 122
-37 58 11 88 22 165 62 l53 27 34 -36 c28 -31 40 -37 88 -41 56 -4 258 34 258
49 0 4 20 13 45 20 25 7 45 19 45 25 0 7 11 15 25 18 13 3 41 17 61 31 20 14
45 25 55 25 10 0 21 5 24 10 4 6 29 24 58 40 l51 29 27 -57 c31 -64 33 -61
-51 -92 -30 -11 -75 -28 -99 -37 -25 -9 -59 -30 -77 -47 -29 -28 -31 -34 -22
-65 5 -19 17 -35 29 -38 10 -3 19 -8 19 -12 0 -11 109 5 181 26 85 25 146 67
179 122 25 44 28 46 145 84 66 22 134 45 150 52 17 7 41 16 55 20 14 4 36 16
50 25 14 10 42 21 62 25 21 4 42 13 49 21 6 8 17 14 25 14 7 0 18 10 25 21 8
17 8 24 -3 35 -12 12 -23 11 -78 -8 -36 -13 -66 -26 -68 -30 -2 -5 -14 -8 -27
-8 -13 0 -27 -4 -30 -10 -3 -5 -15 -10 -26 -10 -10 0 -27 -4 -37 -10 -9 -5
-64 -23 -122 -40 -58 -17 -127 -38 -154 -47 l-48 -16 -24 29 c-37 45 -49 90
-31 117 46 71 318 144 580 156 l128 6 -36 39 -35 39 -133 -7 c-166 -9 -171
-10 -292 -41 -132 -34 -227 -79 -270 -127 -19 -21 -35 -43 -35 -48 0 -8 -115
-70 -140 -76 -5 -1 -52 -22 -180 -81 -41 -19 -97 -43 -125 -53 -54 -20 -168
-36 -184 -26 -14 9 6 63 30 80 12 8 17 19 13 30 -12 32 21 53 84 53 59 1 161
24 219 49 17 8 40 14 51 14 11 0 22 3 24 8 2 4 36 27 76 51 71 43 122 99 122
135 0 22 -40 46 -75 46 -72 -1 -213 -42 -315 -92 -58 -29 -114 -61 -125 -71
-11 -10 -31 -25 -45 -32 -36 -19 -111 -101 -144 -158 -23 -38 -31 -45 -42 -36
-11 9 -14 8 -14 -5 0 -13 -51 -43 -85 -50 -5 -1 -16 -5 -22 -9 -7 -5 -17 -6
-22 -3 -5 3 -14 -1 -21 -9 -14 -17 -40 -20 -40 -5 0 6 -10 8 -24 4 -16 -4 -25
-1 -29 10 -9 23 29 139 76 230 45 87 50 113 29 139 -15 17 -67 24 -74 9 -3 -7
-130 -123 -242 -220 -27 -23 -58 -42 -69 -42 -11 0 -17 -3 -14 -7 14 -13 -36
-53 -65 -53 -16 0 -27 -4 -24 -9 3 -4 -4 -17 -16 -27 l-21 -19 16 30 c9 17 26
41 39 55 13 14 30 38 38 52 17 29 38 58 92 128 23 29 39 60 40 81 3 32 1 34
-30 37 -25 3 -41 -4 -74 -33 -40 -34 -43 -35 -50 -15 -8 21 -38 26 -67 10 -10
-5 -50 -42 -88 -82 -38 -40 -90 -94 -114 -119 -33 -34 -64 -53 -124 -76 -126
-49 -209 -71 -217 -60 -4 7 -12 6 -22 -2 -17 -15 -56 -6 -56 13 0 24 71 130
134 200 64 72 96 122 96 151 0 8 -9 24 -21 36 l-21 21 -28 -27 c-16 -16 -35
-25 -43 -22 -18 7 -124 -14 -193 -38 -58 -20 -263 -121 -285 -141 -11 -10 -47
-14 -135 -15 -65 0 -139 -4 -164 -9 -69 -13 -139 -30 -201 -47 -31 -9 -61 -13
-67 -9 -5 3 -12 0 -15 -8 -3 -8 -23 -20 -44 -26 -21 -7 -60 -24 -88 -37 l-50
-25 34 36 c19 19 38 33 43 30 4 -3 12 4 16 16 12 33 402 440 421 440 6 0 11 4
11 10 0 19 44 60 63 60 16 0 17 3 7 15 -9 11 -9 22 1 50 12 33 12 37 -13 61
l-25 26 -40 -20 c-27 -14 -51 -39 -76 -80 -20 -33 -37 -63 -37 -67 0 -11 -213
-215 -226 -215 -6 0 -14 -7 -18 -15 -3 -8 -11 -15 -18 -15 -7 0 -18 -8 -25
-19 -6 -10 -31 -28 -55 -41 -24 -12 -59 -35 -78 -50 -77 -60 -330 -180 -380
-180 -16 0 -37 -8 -47 -18 -18 -19 -164 -61 -288 -84 -38 -7 -122 -12 -185
-12 -104 0 -120 3 -160 25 -69 38 -85 68 -85 152 1 72 8 95 45 152 11 17 23
37 27 45 11 25 95 130 104 130 4 0 11 10 14 21 8 25 114 129 132 129 6 0 14 8
17 18 4 10 48 57 99 105 122 115 134 125 222 197 41 34 75 66 75 73 0 8 3 8
12 -1 18 -18 28 -15 29 11 0 15 24 42 72 82 40 33 76 60 82 60 5 0 21 12 33
28 13 15 28 27 33 27 5 0 29 18 52 41 23 22 83 67 134 101 50 33 94 66 97 74
3 8 11 14 18 14 6 0 21 9 32 19 25 23 131 81 149 81 6 0 25 13 40 29 29 30
227 137 307 166 79 29 121 38 130 29 23 -24 -42 -193 -120 -309 -94 -141 -135
-198 -159 -218 -14 -13 -33 -36 -42 -51 -30 -53 -258 -296 -278 -296 -6 0 -11
-4 -11 -9 0 -15 -138 -149 -160 -156 -11 -4 -50 -37 -88 -73 -101 -101 -163
-152 -184 -152 -10 0 -18 -6 -16 -12 2 -13 -89 -108 -104 -108 -4 0 -8 -14 -8
-31 0 -27 3 -30 23 -23 12 4 38 20 58 35 20 16 40 29 44 29 3 0 21 16 39 35
19 19 38 35 44 35 5 0 31 22 58 50 26 27 51 47 56 44 4 -3 11 1 14 10 3 8 20
18 37 22 39 8 67 25 67 40 0 11 72 82 136 135 17 14 39 37 49 52 9 15 23 27
29 27 6 0 39 31 71 69 33 38 68 71 79 74 10 3 15 10 11 16 -3 6 -1 11 4 11 6
0 11 6 11 13 0 6 43 60 95 120 95 109 285 366 285 387 0 7 8 24 18 38 20 28
41 87 66 186 15 59 15 59 -11 90 -40 47 -84 75 -108 65z m2155 -1572 c-18 -17
-131 -59 -138 -52 -3 2 12 12 34 20 21 9 50 22 64 30 14 8 32 15 40 15 13 0
13 -2 0 -13z m-1866 -97 c-175 -132 -283 -193 -372 -210 -30 -5 -65 -18 -76
-27 -14 -12 -13 -9 4 10 14 16 52 48 85 72 139 99 478 246 359 155z m-1723
-757 c-14 -25 -119 -144 -212 -238 -251 -256 -424 -427 -477 -470 l-24 -20 13
30 c8 17 16 32 20 35 4 3 15 19 25 35 43 69 80 114 97 118 9 3 15 11 12 19 -8
20 337 363 435 433 19 13 42 30 50 37 11 10 52 33 68 37 1 1 -2 -7 -7 -16z"/>
</g>
</svg>
