<?xml version="1.0" standalone="no"?>
<!DOCTYPE svg PUBLIC "-//W3C//DTD SVG 20010904//EN"
 "http://www.w3.org/TR/2001/REC-SVG-20010904/DTD/svg10.dtd">
<svg version="1.0" xmlns="http://www.w3.org/2000/svg"
 width="276.000000pt" height="190.000000pt" viewBox="0 0 276.000000 190.000000"
 preserveAspectRatio="xMidYMid meet">

<g transform="translate(0.000000,190.000000) scale(0.100000,-0.100000)"
fill="#000000" stroke="none">
<path d="M1911 1824 c-56 -29 -105 -85 -116 -134 -9 -41 -22 -46 -30 -12 -9
43 -61 100 -119 129 -47 24 -63 27 -193 30 l-143 4 0 -481 c0 -264 -4 -480 -8
-480 -4 0 -15 64 -24 143 -22 188 -65 531 -86 687 l-17 125 -115 0 -115 0 -6
-60 c-4 -33 -17 -134 -28 -225 -12 -91 -31 -239 -42 -330 -12 -91 -22 -166
-24 -168 -2 -2 -12 1 -22 6 -24 14 -74 -4 -165 -59 -160 -97 -437 -343 -467
-416 -30 -73 11 -133 91 -133 43 0 168 35 222 61 l41 21 -30 -32 c-16 -17 -60
-52 -98 -77 -116 -77 -253 -208 -282 -270 -19 -39 -12 -73 14 -73 16 0 73 57
300 301 47 51 78 74 138 102 85 39 168 60 146 36 -7 -7 -13 -21 -13 -31 0 -27
38 -23 102 11 l55 30 -5 -25 c-6 -31 18 -40 64 -26 19 6 34 6 34 1 0 -17 27
-9 50 16 30 32 38 32 32 0 -7 -38 23 -32 79 15 26 22 49 40 51 40 2 0 3 -17 3
-37 0 -36 2 -38 30 -36 35 2 64 2 123 1 28 0 61 10 102 31 34 18 65 29 70 26
20 -12 9 -27 -30 -42 -27 -11 -40 -22 -38 -32 6 -28 74 -16 114 19 19 16 47
33 62 37 47 11 118 46 104 51 -8 2 -32 -3 -55 -11 -91 -34 -116 -37 -127 -17
-8 16 -6 22 12 34 28 18 100 35 151 36 23 0 36 4 32 10 -9 15 -95 12 -150 -4
-26 -8 -59 -26 -74 -39 -45 -41 -191 -96 -191 -71 0 23 24 44 51 44 44 0 131
47 127 68 -8 38 -145 -11 -190 -68 -23 -29 -55 -49 -80 -50 -22 0 -23 22 -2
61 8 17 13 37 10 45 -4 11 -21 3 -68 -35 -34 -28 -64 -48 -66 -46 -3 2 7 20
22 39 14 19 26 37 26 40 0 3 -16 4 -36 3 -28 -2 -44 -11 -68 -38 -39 -45 -146
-89 -146 -60 0 4 16 29 36 55 24 32 33 51 26 58 -6 6 -12 6 -16 -1 -4 -6 -19
-11 -34 -11 -15 0 -50 -13 -77 -28 -33 -18 -69 -29 -100 -31 -50 -2 -103 -12
-140 -26 -18 -7 48 69 118 136 27 26 36 59 16 59 -6 0 -38 -29 -72 -64 -69
-70 -118 -102 -221 -140 -74 -28 -182 -36 -204 -14 -18 18 -15 59 7 94 58 95
326 318 476 395 76 39 80 40 83 20 4 -23 -62 -128 -128 -203 -23 -26 -79 -79
-126 -118 -46 -39 -84 -75 -84 -81 0 -12 24 1 65 35 17 14 53 45 80 68 67 57
190 206 215 260 24 53 25 36 6 -98 -8 -54 -18 -123 -21 -151 l-7 -53 49 0 49
0 23 188 c13 103 25 193 27 200 2 9 18 12 46 10 l43 -3 24 -198 25 -197 245 0
c146 0 262 5 286 11 50 14 140 102 150 148 8 38 21 33 29 -12 8 -43 57 -101
114 -134 37 -22 58 -27 112 -27 82 0 146 33 193 100 l31 44 22 -39 c76 -127
261 -143 372 -31 63 62 63 63 60 610 l-3 495 -130 0 -130 0 -3 -46 c-3 -40 0
-47 18 -52 20 -5 20 -10 20 -396 l0 -391 -225 0 -225 0 0 305 0 305 121 0 122
0 -6 60 c-8 75 -35 128 -87 172 -74 64 -171 76 -259 32z m-361 -569 c0 -317
-3 -485 -10 -485 -7 0 -10 168 -10 485 0 317 3 485 10 485 7 0 10 -168 10
-485z m-531 -72 c1 -8 -12 -13 -30 -13 -30 0 -31 2 -26 33 4 17 9 61 12 97 4
36 9 72 12 80 5 12 30 -143 32 -197z m-129 -608 c0 -9 -93 -65 -108 -65 -23 0
-3 19 46 45 48 25 62 29 62 20z m-566 -287 c-62 -67 -82 -86 -123 -123 -32
-29 -33 -29 -21 -5 16 32 179 194 187 186 3 -3 -16 -29 -43 -58z"/>
</g>
</svg>
